<?xml version="1.0" encoding="UTF-8"?><svg id="Layer_2" xmlns="http://www.w3.org/2000/svg" viewBox="0 0 115.99 109.32"><defs><style>.cls-1{fill:#472c19;}</style></defs><g id="logo_expandido"><g><path class="cls-1" d="M38.32,105.62h1.29c.8,0,1.77-.81,1.77-1.77V24.79c0-.97-.8-1.77-1.77-1.77h-9.82c-15.94,0-24.31,11.43-24.47,24.15,0,11.11,6.44,23.67,20.61,23.67,5.31,0,8.05-2.58,8.69-3.7l.97,.32c-.65,1.77-3.86,4.35-10.14,4.35C9.02,71.81,0,59.89,0,47.66c0-13.2,9.82-25.6,29.78-25.6h19.8v.97h-1.29c-.97,0-1.77,.81-1.77,1.77V103.85c0,.97,.81,1.77,1.77,1.77h15.62c6.44,0,10.95-9.18,10.95-9.18h.81l-5.8,12.88h-.8c.64-2.41-2.25-2.74-4.51-2.74h-26.24v-.97Z"/><path class="cls-1" d="M91.36,106.58h-3.7l-19-72.93C62.22,8.85,51.27,1.29,41.13,1.29c-8.21,0-14.49,4.51-14.49,12.56,0,5.96,4.03,10.79,9.5,10.79,3.7,0,7.73-2.58,7.73-6.44,0-.64-.16-1.29-.48-1.61l.64-.64c.64,.64,.97,1.61,.97,2.42,0,5.47-5.47,7.24-8.86,7.24-7.57,0-12.88-5.15-12.88-11.75C23.26,5.8,31.31,0,41.13,0c15.62,0,27.37,10.79,33.81,35.74l16.74,65.2,15.94-58.28c.8-3.22,.16-8.53-2.74-8.53h-.8v-.97h11.91v.97h-.97c-3.22,0-5.31,5.47-6.12,8.53l-17.55,63.92Z"/></g></g></svg>